<svg width="18" height="23" viewBox="0 0 18 23" fill="none" xmlns="http://www.w3.org/2000/svg">
<g id="prime:question">
<path id="Vector" d="M13.07 4.42998C12.2658 3.62416 11.2405 3.07519 10.124 2.85264C9.00757 2.63009 7.85015 2.74397 6.79845 3.17986C5.74676 3.61574 4.84812 4.35401 4.21641 5.30112C3.58471 6.24823 3.24837 7.36154 3.25001 8.49998C3.25001 8.6989 3.32902 8.88966 3.46968 9.03031C3.61033 9.17097 3.80109 9.24998 4.00001 9.24998C4.19892 9.24998 4.38968 9.17097 4.53034 9.03031C4.67099 8.88966 4.75001 8.6989 4.75001 8.49998C4.74803 7.65659 4.99644 6.83158 5.46378 6.1295C5.93111 5.42742 6.59633 4.87985 7.37515 4.55618C8.15397 4.23251 9.01134 4.14731 9.83863 4.31136C10.6659 4.47542 11.4259 4.88135 12.0223 5.47772C12.6186 6.07409 13.0246 6.83407 13.1886 7.66136C13.3527 8.48865 13.2675 9.34602 12.9438 10.1248C12.6201 10.9037 12.0726 11.5689 11.3705 12.0362C10.6684 12.5035 9.8434 12.752 9.00001 12.75C8.8019 12.7526 8.61264 12.8324 8.47254 12.9725C8.33245 13.1126 8.2526 13.3019 8.25001 13.5V15.5C8.25001 15.6989 8.32902 15.8897 8.46968 16.0303C8.61033 16.171 8.80109 16.25 9.00001 16.25C9.19892 16.25 9.38968 16.171 9.53034 16.0303C9.67099 15.8897 9.75001 15.6989 9.75001 15.5V14.2C10.813 14.0576 11.8152 13.6212 12.6436 12.94C13.472 12.2587 14.0938 11.3598 14.4389 10.3442C14.784 9.32874 14.8387 8.23706 14.5968 7.19214C14.355 6.14723 13.8262 5.1906 13.07 4.42998Z" fill="black"/>
<path id="Vector_2" d="M9 20.25C9.69036 20.25 10.25 19.6904 10.25 19C10.25 18.3096 9.69036 17.75 9 17.75C8.30964 17.75 7.75 18.3096 7.75 19C7.75 19.6904 8.30964 20.25 9 20.25Z" fill="black"/>
</g>
</svg>
